<svg xmlns="http://www.w3.org/2000/svg" width="256" height="256" viewBox="-557 203 256 256" enable-background="new -557 203 256 256"><style type="text/css">.st0{fill:#512200;stroke:#512200;stroke-width:3.9046;stroke-miterlimit:10;}</style><path class="st0" d="M-346.7 311.7c2.7 10.3 4.2 21.3 4.2 32.7 0 1.3 0 2.6-.1 4l13.4 5.2 11.1-9.2 8.5 10-16.6 13.8-17.4-7c-2 15.3-6.6 29.5-13.3 42l2.4-3.2 13 7.4 12.4-7.5 6.9 11.1-18.5 11.2-20.4-11.9c-16 24.8-40.7 40.7-68.4 40.7-27.7 0-52.4-15.8-68.3-40.5l-20.1 11.7-18.5-11.2 6.9-11.1 12.4 7.5 13-7.4.9 1.3c-6.1-11.9-10.4-25.3-12.3-39.8l-16.8 6.8-16.6-13.8 8.5-10 11.1 9.2 12.8-5-.1-4.2c0-11.4 1.5-22.4 4.2-32.7l-21.7-.8-9.5-19.3 11.9-5.7 6.3 12.9 15 .7.3 4.3c9-26.7 26.6-47.9 48.5-58.5.4-8.2 7.2-14.7 15.6-14.7h36.4c8.6 0 15.7 6.9 15.7 15.5l-.1 1.1c20.7 11.3 37.1 32.3 45.4 58.2l.4-5.8 15-.7 6.3-12.9 11.9 5.7-9.5 19.3-22.2.6zM-385.5 216.9l-1.7 4.6-2.7 1.1-5.5 1.6-4.7 2.8-6.5 3.6v-3.6l7.3-5.3 5.4-1.6 4.8-3.2 2.7-5.4 5.3-1.8-1.5 5zM-460.1 224.2l-5.5-1.6-2.7-1.1-1.7-4.6-2.9-2.2-1.5-5 5.3 1.8 2.7 5.4 4.8 3.2 5.3 1.6 7.4 5.3v3.6l-6.5-3.6z"/></svg>