<?xml version="1.0" encoding="utf-8"?>
<!-- Generator: Adobe Illustrator 18.1.0, SVG Export Plug-In . SVG Version: 6.00 Build 0)  -->
<svg version="1.1" id="Layer_1" xmlns="http://www.w3.org/2000/svg" xmlns:xlink="http://www.w3.org/1999/xlink" x="0px" y="0px"
	 width="256px" height="256px" viewBox="-557 203 256 256" style="enable-background:new -557 203 256 256;" xml:space="preserve">
<style type="text/css">
	.st0{stroke:#000000;stroke-width:3.9046;stroke-miterlimit:10;}
</style>
<g>
	<path class="st0" d="M-346.7,311.7c2.7,10.3,4.2,21.3,4.2,32.7c0,1.3,0,2.6-0.1,4l13.4,5.2l11.1-9.2l8.5,10l-16.6,13.8l-17.4-7
		c-2,15.3-6.6,29.5-13.3,42l2.4-3.2l13,7.4l12.4-7.5l6.9,11.1l-18.5,11.2l-20.4-11.9c-16,24.8-40.7,40.7-68.4,40.7
		c-27.7,0-52.4-15.8-68.3-40.5l-20.1,11.7l-18.5-11.2l6.9-11.1l12.4,7.5l13-7.4l0.9,1.3c-6.1-11.9-10.4-25.3-12.3-39.8l-16.8,6.8
		l-16.6-13.8l8.5-10l11.1,9.2l12.8-5c0-1.4-0.1-2.8-0.1-4.2c0-11.4,1.5-22.4,4.2-32.7l-21.7-0.8l-9.5-19.3l11.9-5.7l6.3,12.9l15,0.7
		l0.3,4.3c9-26.7,26.6-47.9,48.5-58.5c0.4-8.2,7.2-14.7,15.6-14.7h36.4c8.6,0,15.7,6.9,15.7,15.5c0,0.4-0.1,0.7-0.1,1.1
		c20.7,11.3,37.1,32.3,45.4,58.2l0.4-5.8l15-0.7l6.3-12.9l11.9,5.7l-9.5,19.3L-346.7,311.7z"/>
	<polygon class="st0" points="-385.5,216.9 -387.2,221.5 -389.9,222.6 -395.4,224.2 -400.1,227 -406.6,230.6 -406.6,227 
		-399.3,221.7 -393.9,220.1 -389.1,216.9 -386.4,211.5 -381.1,209.7 -382.6,214.7 	"/>
	<polygon class="st0" points="-460.1,224.2 -465.6,222.6 -468.3,221.5 -470,216.9 -472.9,214.7 -474.4,209.7 -469.1,211.5 
		-466.4,216.9 -461.6,220.1 -456.3,221.7 -448.9,227 -448.9,230.6 -455.4,227 	"/>
</g>
</svg>
